<?xml version="1.0" encoding="UTF-8"?>
<svg width="1200pt" height="1200pt" version="1.1" viewBox="0 0 1200 1200" xmlns="http://www.w3.org/2000/svg">
 <path d="m280.31 988.59c-43.359 0-78.516-35.156-78.516-78.516s35.156-78.516 78.516-78.516 78.516 35.156 78.516 78.516c0.23438 43.359-35.156 78.516-78.516 78.516zm500.16-112.03h-389.3c-18.984-61.172-84.141-95.391-145.31-76.406-36.562 11.25-65.156 39.844-76.406 76.406h-51.562c-9.8438 0-19.453-8.9062-19.453-18.75v-122.58c0-9.8438 9.8438-15.703 19.453-15.703h662.58zm57.891-407.81h112.03c6.5625 0 12.656 3.5156 15.703 9.375l60.469 117.19h-208.59v-110.39c0-9.8438 10.781-16.172 20.391-16.172zm133.12 519.84c-43.359 0-78.516-35.156-78.516-78.516s35.156-78.516 78.516-78.516 78.516 35.156 78.516 78.516-35.156 78.516-78.516 78.516zm165.23-130.78c0 9.8438-4.9219 18.75-14.531 18.75h-39.844c-18.984-61.172-84.141-95.391-145.31-76.406-36.562 11.25-65.156 39.844-76.406 76.406h-42.656v-243.75h235.55l73.828 31.641c6.5625 2.8125 9.1406 8.6719 9.1406 15.703v177.66z" fill="white"/>
 <path d="m733.59 667.97h-691.41c-10.312 0-18.75-8.4375-18.75-18.75s8.4375-18.75 18.75-18.75h670.31v-83.906c0-10.312 8.4375-18.75 18.75-18.75s18.75 8.4375 18.75 18.75v100.78c0 10.312-6.0938 20.625-16.406 20.625z" fill="#ccc"/>
 <path d="m409.92 312.66 62.344 67.031h-132.42v-75h52.266c6.7969 0.23438 13.125 3.0469 17.812 7.9688zm-107.58-7.9688v75h-83.672l34.453-75zm-135.7 6.7969c4.4531-4.2188 10.312-6.7969 16.641-6.7969h28.594l-34.453 75h-83.438zm-103.36 191.72v-86.016h239.06v112.5h-50.391c-7.5-43.828-49.219-73.125-93.047-65.625-33.516 5.8594-59.766 32.109-65.625 65.625h-3.9844c-13.125 0-26.016-13.125-26.016-26.484zm109.45 80.859c-23.672 0-42.891-19.219-42.891-42.891s19.219-42.891 42.891-42.891 42.891 19.219 42.891 42.891-19.219 42.891-42.891 42.891zm377.11 0c-23.672 0-42.891-19.219-42.891-42.891s19.219-42.891 42.891-42.891 42.891 19.219 42.891 42.891-19.219 42.891-42.891 42.891zm106.41-80.859c0 13.359-9.1406 26.484-22.5 26.484h-4.6875c-7.5-43.828-49.219-73.125-93.047-65.625-33.516 5.8594-59.766 32.109-65.625 65.625h-130.55v-112.5h189.38 1.875 3.2812 71.016c29.297 0 51.094 22.5 51.094 51.562v34.453z" fill="#ccc"/>
 <path d="m391.41 213.28h-206.48c-10.312 0-18.75 8.4375-18.75 18.75s8.4375 18.75 18.75 18.75h14.297v34.453c0 10.312 8.4375 18.75 18.75 18.75s18.75-8.4375 18.75-18.75v-34.453h96.094v34.453c0 10.312 8.4375 18.75 18.75 18.75s18.75-8.4375 18.75-18.75v-34.453h21.094c10.312 0 18.75-8.4375 18.75-18.75s-8.4375-18.75-18.75-18.75z" fill="#ccc"/>
</svg>
