<svg xmlns="http://www.w3.org/2000/svg" viewBox="0 0 400 250" width="100%" height="100%">
  <defs>
    <linearGradient id="carBodyGradient" x1="0%" y1="0%" x2="100%" y2="100%">
      <stop offset="0%" stop-color="#2d72b8" />
      <stop offset="100%" stop-color="#1a4b8a" />
    </linearGradient>
    <linearGradient id="windowGradient" x1="0%" y1="0%" x2="100%" y2="100%">
      <stop offset="0%" stop-color="#a3c6ff" />
      <stop offset="100%" stop-color="#7babff" />
    </linearGradient>
    <linearGradient id="groundGradient" x1="0%" y1="0%" x2="100%" y2="0%">
      <stop offset="0%" stop-color="#e0e0e0" />
      <stop offset="100%" stop-color="#c0c0c0" />
    </linearGradient>
    <filter id="shadow" x="-20%" y="-20%" width="140%" height="140%">
      <feDropShadow dx="3" dy="3" stdDeviation="5" flood-color="#0056b3" flood-opacity="0.3"/>
    </filter>
    <filter id="glow" x="-20%" y="-20%" width="140%" height="140%">
      <feGaussianBlur in="SourceGraphic" stdDeviation="3" result="blur" />
      <feFlood flood-color="#ff9900" flood-opacity="0.7" result="glow" />
      <feComposite in="glow" in2="blur" operator="in" result="glowBlur" />
      <feComposite in="SourceGraphic" in2="glowBlur" operator="over" />
    </filter>
    <pattern id="rustPattern" width="20" height="20" patternUnits="userSpaceOnUse">
      <circle cx="5" cy="5" r="3" fill="#8a3e00" opacity="0.6" />
      <circle cx="15" cy="15" r="2" fill="#8a3e00" opacity="0.6" />
    </pattern>
  </defs>
  <style>
    .car-body {
      fill: url(#carBodyGradient);
      animation: carBodyShake 5s ease-in-out infinite;
      transform-origin: center bottom;
    }
    .car-window {
      fill: url(#windowGradient);
      opacity: 0.7;
    }
    .ground {
      fill: url(#groundGradient);
    }
    .wheel {
      fill: #333;
      animation: wobble 2s ease-in-out infinite;
      transform-origin: center center;
    }
    .wheel-inner {
      fill: #777;
      animation: spin 3s linear infinite;
      transform-origin: center center;
    }
    .price-tag {
      animation: priceTagBounce 3s ease-in-out infinite alternate;
      transform-origin: center top;
      filter: url(#shadow);
    }
    .dollar {
      animation: dollarPulse 2s ease-in-out infinite alternate;
      fill: #01a82d;
    }
    .rust {
      fill: url(#rustPattern);
      animation: rustGlow 3s ease-in-out infinite alternate;
    }
    .shine {
      fill: white;
      opacity: 0;
      animation: shine 5s ease-in-out infinite;
    }
    .shadow {
      fill: rgba(0,0,0,0.2);
      animation: shadowMove 5s ease-in-out infinite;
      transform-origin: center bottom;
    }
    
    @keyframes carBodyShake {
      0%, 100% { transform: rotate(0deg) translateY(0); }
      25% { transform: rotate(0.5deg) translateY(-2px); }
      75% { transform: rotate(-0.5deg) translateY(1px); }
    }
    @keyframes wobble {
      0%, 100% { transform: rotate(0deg) translateY(0); }
      25% { transform: rotate(1deg) translateY(-1px); }
      75% { transform: rotate(-1deg) translateY(1px); }
    }
    @keyframes spin {
      0% { transform: rotate(0deg); }
      100% { transform: rotate(360deg); }
    }
    @keyframes priceTagBounce {
      0%, 10%, 20%, 100% { transform: translateY(0) rotate(0deg); }
      5% { transform: translateY(-10px) rotate(-5deg); }
      15% { transform: translateY(-5px) rotate(5deg); }
    }
    @keyframes dollarPulse {
      0% { transform: scale(1); }
      50% { transform: scale(1.2); }
      100% { transform: scale(1); }
    }
    @keyframes rustGlow {
      0% { opacity: 0.7; }
      100% { opacity: 0.9; }
    }
    @keyframes shine {
      0%, 100% { opacity: 0; transform: translateX(-150px) skewX(-20deg); }
      10% { opacity: 0.3; transform: translateX(150px) skewX(-20deg); }
    }
    @keyframes shadowMove {
      0%, 100% { transform: scaleX(1); }
      50% { transform: scaleX(0.95); }
    }
  </style>

  <!-- Ground -->
  <rect class="ground" x="40" y="180" width="320" height="20" rx="2" />
  
  <!-- Car shadow -->
  <ellipse class="shadow" cx="200" cy="190" rx="120" ry="10" />

  <!-- Car body -->
  <g class="car-body">
    <!-- Main body -->
    <path d="M80,150 C70,100 90,80 110,80 L270,80 C290,80 310,100 300,150 L80,150 Z" />
    
    <!-- Roof -->
    <path d="M120,80 L140,40 L240,40 L260,80 Z" />
    
    <!-- Trunk -->
    <path d="M80,150 L60,150 C50,150 45,140 50,130 L60,110 C70,90 80,90 90,90 L110,90 L120,80 Z" />
    
    <!-- Windows -->
    <path class="car-window" d="M135,45 L150,80 L230,80 L245,45 Z" />
    <path class="car-window" d="M120,85 L130,85 L140,95 L130,130 L110,130 Z" />
    <path class="car-window" d="M260,85 L250,85 L240,95 L250,130 L270,130 Z" />
    
    <!-- Rust spots -->
    <circle class="rust" cx="90" cy="120" r="15" />
    <circle class="rust" cx="280" cy="100" r="10" />
    <circle class="rust" cx="160" cy="60" r="8" />
    <path class="rust" d="M220,130 Q230,140 240,130 Q245,120 230,115 Q220,120 220,130 Z" />
    
    <!-- Shine effect -->
    <path class="shine" d="M120,80 L260,80 L240,150 L140,150 Z" />
    
    <!-- Dent -->
    <path d="M180,90 Q190,100 200,90 Q210,80 190,85 Z" fill="#1a4b8a" />
  </g>

  <!-- Wheels -->
  <g class="wheel" transform="translate(100, 150)">
    <circle cx="0" cy="0" r="25" />
    <circle class="wheel-inner" cx="0" cy="0" r="15" />
    <path d="M-2,-15 L2,-15 L2,15 L-2,15 Z" fill="#444" />
    <path d="M-15,-2 L-15,2 L15,2 L15,-2 Z" fill="#444" />
    <path d="M-10,-10 L-7,-13 L7,13 L4,10 Z" fill="#444" />
    <path d="M-10,10 L-7,13 L7,-13 L4,-10 Z" fill="#444" />
  </g>
  
  <g class="wheel" transform="translate(270, 150)">
    <circle cx="0" cy="0" r="25" />
    <circle class="wheel-inner" cx="0" cy="0" r="15" />
    <path d="M-2,-15 L2,-15 L2,15 L-2,15 Z" fill="#444" />
    <path d="M-15,-2 L-15,2 L15,2 L15,-2 Z" fill="#444" />
    <path d="M-10,-10 L-7,-13 L7,13 L4,10 Z" fill="#444" />
    <path d="M-10,10 L-7,13 L7,-13 L4,-10 Z" fill="#444" />
  </g>

  <!-- Price tag -->
  <g class="price-tag" transform="translate(320, 60)">
    <rect x="-60" y="-40" width="80" height="60" rx="10" fill="#fff" stroke="#0056b3" stroke-width="3" />
    <text x="-45" y="-10" font-family="Arial, sans-serif" font-size="16" font-weight="bold" fill="#0056b3">CASH</text>
    <text x="-48" y="15" font-family="Arial, sans-serif" font-size="14" fill="#0056b3">FOR CAR</text>
    <circle class="dollar" cx="-20" cy="-15" r="14" fill="#01a82d" />
    <text x="-26" y="-9" font-family="Arial, sans-serif" font-size="20" font-weight="bold" fill="white">$</text>
  </g>
</svg> 