<svg width="1200pt" height="1200pt" version="1.1" viewBox="0 0 1200 1200" xmlns="http://www.w3.org/2000/svg" fill="currentColor">
 <path d="m1124.2 801.24v-123.24c0-27-14.766-51.844-38.531-64.781l-111.14-60.703-44.062-120.94c-18.469-50.625-66.938-84.609-120.84-84.609h-234.47c-9.9375 0-18 8.0625-18 18v134.29l-250.08-268.55c-26.062-27.938-69.141-31.453-99.469-9-0.23437 0.14062-0.46875 0.375-0.70312 0.46875-0.60938 0.46875-1.3125 0.84375-2.0625 1.3125l-0.9375 0.9375c-8.625 7.3125-15.141 16.312-19.688 26.156l-93 126.47c-17.391 4.5469-30.375 20.297-30.375 39v30.844c0 22.312 18.141 40.547 40.547 40.547h0.60938v12.844c-23.156 7.5469-39.844 29.391-39.844 54.938 0 31.922 25.922 57.844 57.844 57.844h4.5469c31.922 0 57.844-25.922 57.844-57.844 0-9.9375-8.0625-18-18-18-3 0-5.7656 0.84375-8.2969 2.0625-5.7656 3-9.7031 9-9.7031 15.938 0 12-9.8438 21.844-21.844 21.844h-4.5469c-12 0-21.844-9.8438-21.844-21.844s9.8438-21.844 21.844-21.844c9.9375 0 18-8.0625 18-18v-27.938h9.6094c22.312 0 40.547-18.141 40.547-40.547v-30.844c0-9.4688-3.4688-18.234-9-25.078l31.688-26.062 146.86 282h-263.72c-9.9375 0-18 8.0625-18 18v136.22c-19.781 7.3125-33.938 26.156-33.938 48.469v21.469c0 28.547 23.297 51.844 51.844 51.844h65.297c24.141 41.859 69.234 70.312 120.94 70.312s96.844-28.312 120.94-70.312h403.55c24.141 41.859 69.234 70.312 120.94 70.312s96.844-28.312 120.94-70.312h59.625c28.547 0 51.844-23.297 51.844-51.844v-21.469c0-22.219-14.156-41.062-33.844-48.469zm-2.1562 69.844c0 8.7656-7.0781 15.844-15.844 15.844h-45.375c2.625-10.688 4.2188-21.703 4.2188-33.234 0-6.8438-0.60938-13.453-1.5469-19.922h42.703c8.7656 0 15.844 7.0781 15.844 15.844zm-196.55 86.156c-57.141 0-103.45-46.453-103.45-103.45s46.453-103.45 103.45-103.45 103.45 46.453 103.45 103.45-46.453 103.45-103.45 103.45zm-645.37 0c-57.141 0-103.45-46.453-103.45-103.45s46.453-103.45 103.45-103.45 103.45 46.453 103.45 103.45-46.453 103.45-103.45 103.45zm-202.08-86.156v-21.469c0-8.7656 7.0781-15.844 15.844-15.844h48.375c-0.9375 6.4688-1.5469 13.219-1.5469 19.922 0 11.531 1.5469 22.547 4.2188 33.234h-50.859c-8.7656 0-15.844-7.0781-15.844-15.844zm33.938-188.02h445.22v114.84h-149.39c-21.609-49.078-70.688-83.531-127.69-83.531s-106.08 34.453-127.69 83.531h-40.453zm-10.547-231.52c-2.5312 0-4.5469-2.0625-4.5469-4.5469v-30.844c0-2.5312 2.0625-4.5469 4.5469-4.5469h46.312c2.5312 0 4.5469 2.0625 4.5469 4.5469v30.844c0 2.5312-2.0625 4.5469-4.5469 4.5469zm39.844-75.938h-4.2188l46.781-63.609c0.60937 1.4531 1.0781 3 1.7812 4.4531l8.2969 15.844-52.688 43.312zm76.219-75.75c-8.5312-16.453-4.3125-36.703 10.078-48.375 15.938-12.938 39.234-11.297 53.297 3.7031l276.37 296.86v94.922h-158.76l-180.84-347.16zm679.31 144.14 46.312 127.31c1.4531 4.0781 4.4531 7.5469 8.2969 9.6094l117 63.938c12.141 6.6094 19.688 19.453 19.688 33.234v119.77h-34.922c-21.609-49.078-70.688-83.531-127.69-83.531s-106.08 34.453-127.69 83.531h-204.61v-414.79h216.47c38.766 0 73.781 24.469 87 60.938zm-478.82 389.86h369.61c-0.9375 6.4688-1.5469 13.219-1.5469 19.922 0 11.531 1.5469 22.547 4.2188 33.234h-374.76c2.625-10.688 4.2188-21.703 4.2188-33.234 0-6.8438-0.60938-13.453-1.5469-19.922z"/>
 <path d="m654.84 597.24h218.53c5.7656 0 11.297-2.7656 14.625-7.4531 3.375-4.6875 4.3125-10.781 2.3906-16.219l-41.297-122.76c-6.2344-18.469-23.531-30.938-43.078-30.938h-151.31c-9.9375 0-18 8.0625-18 18v141.47c0 9.9375 8.0625 18 18 18zm18-141.37h133.31c4.0781 0 7.6875 2.625 9 6.4688l33.234 99h-175.55z"/>
 <path d="m342.47 853.78c0-34.453-27.938-62.391-62.391-62.391s-62.391 27.938-62.391 62.391 27.938 62.391 62.391 62.391 62.391-27.938 62.391-62.391zm-62.391-26.391c14.531 0 26.391 11.859 26.391 26.391s-11.859 26.391-26.391 26.391-26.391-11.859-26.391-26.391 11.859-26.391 26.391-26.391z"/>
 <path d="m987.84 853.78c0-34.453-27.938-62.391-62.391-62.391s-62.391 27.938-62.391 62.391 27.938 62.391 62.391 62.391 62.391-27.938 62.391-62.391zm-62.391-26.391c14.531 0 26.391 11.859 26.391 26.391s-11.859 26.391-26.391 26.391-26.391-11.859-26.391-26.391 11.859-26.391 26.391-26.391z"/>
</svg>
